# xmcd
#
# Track frame offsets:
#	150
#	17503
#	33460
#	48995
#	69802
#	84202
#	102727
#	117987
#	130827
#	153027
#
# Disc length: 2274 seconds
#
# Revision: 0
# Processed by: cddbd v1.5.2PL0 Copyright (c) Steve Scherf et al.
# Submitted via: EZCDAudioConverter 2.5.0.1
#
DISCID=7108e00a
DTITLE=Carlos Elliot Jr. and The Cornlickers - Del Otún and El Mississippi
DYEAR=2015
DGENRE=Hill Country Blues
TTITLE0=Down In Como
TTITLE1=Katrina The Mule
TTITLE2=I Love You With All My Heart
TTITLE3=Got This Feelin
TTITLE4=Two-Rivers (Dosquebradas)
TTITLE5=Hoop Of Life
TTITLE6=When The Beat Hits You
TTITLE7=My Mule Brays In Othar`s Hood
TTITLE8=This Is My Band (RL Boyce)
TTITLE9=Story Of Otún and North MS
EXTD=
EXTT0=
EXTT1=
EXTT2=
EXTT3=
EXTT4=
EXTT5=
EXTT6=
EXTT7=
EXTT8=
EXTT9=
PLAYORDER=
